<svg fill="#000000" height="24px" width="24px" version="1.1" id="Capa_1" xmlns="http://www.w3.org/2000/svg" xmlns:xlink="http://www.w3.org/1999/xlink" viewBox="0 0 297 297" xml:space="preserve"><g id="SVGRepo_bgCarrier" stroke-width="0"></g><g id="SVGRepo_tracerCarrier" stroke-linecap="round" stroke-linejoin="round"></g><g id="SVGRepo_iconCarrier"> <g> <path d="M295.841,282.162l-27.383-54.907c-1.474-2.956-4.586-4.865-7.928-4.865c-1.358,0-2.663,0.308-3.883,0.916l-4.229,2.108 c-4.347,2.168-6.118,7.467-3.951,11.813l27.382,54.905c1.474,2.957,4.586,4.867,7.93,4.867c1.356,0,2.661-0.308,3.881-0.916 l4.231-2.11C296.236,291.808,298.009,286.509,295.841,282.162z"></path> <path d="M70.737,62.304H14.66C6.452,77.498,1.363,94.625,0.234,112.825h64.809C65.479,95.019,67.428,77.887,70.737,62.304z"></path> <path d="M154.457,46.892c-8.322-25.866-20.479-41.295-31.893-41.295c-11.414,0-23.57,15.429-31.894,41.295H154.457z"></path> <path d="M90.671,194.169c8.322,25.866,20.479,41.296,31.894,41.296c11.414,0,23.57-15.43,31.894-41.296H90.671z"></path> <path d="M80.128,30.906C85.658,17.32,92.364,6.9,99.856,0C69.205,5.745,42.575,22.897,24.54,46.892h50.068 C76.255,41.268,78.091,35.911,80.128,30.906z"></path> <path d="M80.128,210.155c-2.037-5.005-3.873-10.362-5.519-15.986H24.539c18.035,23.994,44.666,41.148,75.317,46.893 C92.364,234.161,85.658,223.742,80.128,210.155z"></path> <path d="M65.043,128.237H0.234c1.129,18.199,6.217,35.325,14.425,50.52h56.078C67.427,163.175,65.479,146.044,65.043,128.237z"></path> <path d="M170.285,55.438c-33.455,16.685-47.099,57.479-30.412,90.934c11.553,23.166,34.822,37.557,60.729,37.557 c10.535,0,20.697-2.404,30.202-7.145c16.206-8.082,28.295-21.992,34.04-39.167c5.744-17.175,4.456-35.56-3.627-51.767 c-11.553-23.165-34.824-37.556-60.73-37.556C189.95,48.295,179.789,50.697,170.285,55.438z"></path> <path d="M165,30.906c1.117,2.746,2.168,5.605,3.166,8.549c10.273-4.361,21.121-6.572,32.32-6.572c2.754,0,5.482,0.142,8.18,0.401 C191.645,16.471,169.751,4.588,145.272,0C152.764,6.9,159.469,17.32,165,30.906z"></path> <path d="M86.471,62.304c-3.354,14.692-5.546,31.737-6.021,50.522h36.971c0.762-18.458,7.658-36.321,19.664-50.522H86.471z"></path> <path d="M86.47,178.757h59.209c-7.964-7-14.657-15.597-19.599-25.506c-4.033-8.087-6.602-16.523-7.845-25.014H80.45 C80.926,147.021,83.118,164.064,86.47,178.757z"></path> <path d="M254.819,207.672l-10.403-20.858c-2.175,1.345-4.417,2.607-6.734,3.763c-2.318,1.157-4.671,2.194-7.052,3.124 l10.396,20.846c1.365-1.116,2.87-2.104,4.513-2.923l4.229-2.109C251.376,208.713,253.074,208.098,254.819,207.672z"></path> <path d="M170.52,194.169c-1.648,5.624-3.483,10.982-5.521,15.986c-5.53,13.587-12.235,24.006-19.727,30.906 c29.21-5.475,54.765-21.315,72.711-43.56c-5.675,1.219-11.479,1.839-17.382,1.839C190.466,199.34,179.637,197.537,170.52,194.169z"></path> </g> </g></svg>
